<svg width="186" height="165" xmlns="http://www.w3.org/2000/svg" xmlns:xlink="http://www.w3.org/1999/xlink" overflow="hidden"><defs><clipPath id="clip0"><rect x="318" y="285" width="186" height="165"/></clipPath></defs><g clip-path="url(#clip0)" transform="translate(-318 -285)"><path d="M374.164 308.616C402.392 287.645 442.277 293.529 463.248 321.757 484.218 349.986 478.335 389.87 450.106 410.841 421.877 431.812 381.993 425.928 361.022 397.7 340.051 369.471 345.935 329.587 374.164 308.616Z" stroke="#FFC000" stroke-width="6" stroke-miterlimit="8" fill="#C00000" fill-rule="evenodd"/><text fill="#FFFFFF" font-family="Calibri,Calibri_MSFontService,sans-serif" font-weight="400" font-size="53" transform="matrix(0.917813 0.397013 -0.397013 0.917813 366.502 359)">ХИТ</text><path d="M402.007 322.336 405.05 322.894 407.421 320.723 407.754 323.92 410.401 325.522 407.563 326.941 406.829 330.102 404.742 327.781 401.641 328.133 403.189 325.28Z" stroke="#FFC000" stroke-width="1.33333" stroke-miterlimit="8" fill="#FFC000" fill-rule="evenodd"/><path d="M419.727 330.002 422.771 330.559 425.141 328.388 425.474 331.585 428.121 333.188 425.284 334.606 424.549 337.767 422.462 335.447 419.361 335.798 420.909 332.946Z" stroke="#FFC000" stroke-width="1.33333" stroke-miterlimit="8" fill="#FFC000" fill-rule="evenodd"/><path d="M438 337.906 441.044 338.463 443.414 336.293 443.747 339.49 446.394 341.092 443.556 342.51 442.822 345.671 440.735 343.351 437.634 343.702 439.182 340.85Z" stroke="#FFC000" stroke-width="1.33333" stroke-miterlimit="8" fill="#FFC000" fill-rule="evenodd"/><path d="M379.398 374.602 382.442 375.16 384.812 372.989 385.145 376.186 387.792 377.789 384.955 379.207 384.22 382.368 382.133 380.048 379.032 380.399 380.58 377.546Z" stroke="#FFC000" stroke-width="1.33333" stroke-miterlimit="8" fill="#FFC000" fill-rule="evenodd"/><path d="M397.119 382.268 400.162 382.825 402.533 380.654 402.866 383.851 405.513 385.454 402.675 386.872 401.941 390.033 399.854 387.713 396.753 388.064 398.301 385.212Z" stroke="#FFC000" stroke-width="1.33333" stroke-miterlimit="8" fill="#FFC000" fill-rule="evenodd"/><path d="M415.392 390.172 418.435 390.73 420.806 388.559 421.139 391.756 423.786 393.358 420.948 394.776 420.213 397.937 418.126 395.617 415.026 395.968 416.574 393.116Z" stroke="#FFC000" stroke-width="1.33333" stroke-miterlimit="8" fill="#FFC000" fill-rule="evenodd"/></g></svg>